<?xml version="1.0" encoding="utf-8"?>
<!-- Generator: Adobe Illustrator 27.0.1, SVG Export Plug-In . SVG Version: 6.00 Build 0)  -->
<svg version="1.1" id="Capa_2_00000156581985692559664460000001005683547631384235_"
	 xmlns="http://www.w3.org/2000/svg" xmlns:xlink="http://www.w3.org/1999/xlink" x="0px" y="0px" viewBox="0 0 72 72"
	 style="enable-background:new 0 0 72 72;" xml:space="preserve">
<g id="Fundamentales">
	<g>
		<circle cx="44" cy="39.5" r="3.4"/>
		<path d="M62.5,13.2h-9l-1.2-3.8c-0.8-2.4-3-4-5.5-4H31.9c-2.5,0-4.7,1.6-5.5,4l-1.2,3.8H9.5c-4.2,0-7.7,3.5-7.7,7.8v37.9
			c0,4.2,3.5,7.7,7.7,7.7h53c4.3,0,7.7-3.5,7.7-7.7V21C70.2,16.7,66.7,13.2,62.5,13.2L62.5,13.2z M13.4,35.3C9.3,35.3,6,32,6,27.9
			s3.3-7.4,7.4-7.4s7.4,3.3,7.4,7.4S17.5,35.3,13.4,35.3z M39.3,54.9c-6.4,0-11.6-5.2-11.6-11.6s5.2-11.6,11.6-11.6
			S50.9,37,50.9,43.4S45.7,54.9,39.3,54.9z"/>
	</g>
</g>
</svg>
