<?xml version="1.0" encoding="UTF-8"?><svg id="Capa_2" xmlns="http://www.w3.org/2000/svg" viewBox="0 0 68.38 54"><defs><style>.cls-1{fill:#fff;}</style></defs><g id="Fundamentales"><g><circle class="cls-1" cx="42.23" cy="27" r="3.37"/><path class="cls-1" d="M60.66,7.71h-9l-1.25-3.76c-.78-2.36-2.99-3.95-5.48-3.95h-14.8c-2.5,0-4.7,1.59-5.48,3.95l-1.25,3.76H7.71C3.46,7.71,0,11.17,0,15.43v30.86c0,4.25,3.46,7.71,7.71,7.71H60.66c4.25,0,7.71-3.46,7.71-7.71V15.43c0-4.25-3.46-7.71-7.71-7.71ZM11.55,27.74c-4.1,0-7.42-3.32-7.42-7.42s3.32-7.42,7.42-7.42,7.42,3.32,7.42,7.42-3.32,7.42-7.42,7.42Zm25.98,14.68c-6.39,0-11.57-5.18-11.57-11.57s5.18-11.57,11.57-11.57,11.57,5.18,11.57,11.57-5.18,11.57-11.57,11.57Z"/></g></g></svg>