<?xml version="1.0" encoding="UTF-8"?><svg id="Capa_2" xmlns="http://www.w3.org/2000/svg" viewBox="0 0 72 69.67"><defs><style>.cls-1{fill:#fff;}</style></defs><g id="Fundamentales"><g><path class="cls-1" d="M30.83,46.29l-10.85-10.85c-2.85-2.85-2.85-7.48,0-10.33l.89-.89,10.76,10.76V2.3c0-1.27,1.03-2.3,2.3-2.3h4.14c1.27,0,2.3,1.03,2.3,2.3V34.98s10.76-10.76,10.76-10.76l.89,.89c2.85,2.85,2.85,7.48,0,10.33l-10.85,10.85c-1.37,1.37-3.23,2.14-5.17,2.14h0c-1.94,0-3.8-.77-5.17-2.14Z"/><path class="cls-1" d="M49.94,46.39l-7.13,6.83c-1.81,1.73-4.26,2.7-6.82,2.7s-5.01-.97-6.82-2.7l-7.13-6.83H0v15.45c0,4.32,3.51,7.83,7.83,7.83h56.34c4.32,0,7.83-3.51,7.83-7.83v-15.45h-22.06Zm9.16,17.05c-2.99,0-5.42-2.43-5.42-5.42s2.43-5.42,5.42-5.42,5.42,2.43,5.42,5.42-2.43,5.42-5.42,5.42Z"/></g></g></svg>