<?xml version="1.0" encoding="UTF-8"?><svg id="Capa_2" xmlns="http://www.w3.org/2000/svg" viewBox="0 0 72 71.99"><defs><style>.cls-1{fill:#fff;}</style></defs><g id="Fundamentales"><g><polygon class="cls-1" points="46.52 62.56 13.76 29.81 29.81 13.76 62.56 46.52 46.52 62.56"/><path class="cls-1" d="M2.64,18.67c-3.52-3.52-3.52-9.22,0-12.74l3.29-3.29h.01c3.52-3.52,9.22-3.52,12.74,0l7.94,7.94L10.58,26.61l-7.94-7.94Z"/><path class="cls-1" d="M65.75,49.7c.91,.93,1.58,2.07,1.94,3.33l4.18,14.64c.34,1.18,.01,2.45-.86,3.32-.87,.87-2.14,1.2-3.32,.86l-14.64-4.18c-1.25-.36-2.4-1.03-3.33-1.94l16.04-16.04Z"/><path class="cls-1" d="M57.44,35.03L36.89,14.48l6.35-6.35s.08,.1,.13,.14l9.01,9.01c.87,.87,2.31,.87,3.18,0,.87-.87,.87-2.31,0-3.18l-9.01-9.01s-.1-.08-.14-.13l2.79-2.79c2.65-2.63,6.93-2.63,9.56,0l10.99,10.98c2.63,2.65,2.63,6.93,0,9.56l-12.3,12.32Z"/><path class="cls-1" d="M4.96,46.4s.08,.1,.13,.14l9.01,9.01c.87,.87,2.31,.87,3.18,0s.87-2.31,0-3.18l-9.01-9.01s-.1-.08-.14-.13l6.35-6.35,20.55,20.55-12.3,12.3c-2.65,2.63-6.93,2.63-9.56,0L2.17,58.76c-2.63-2.65-2.63-6.93,0-9.56l2.79-2.8Z"/></g></g></svg>