<?xml version="1.0" encoding="utf-8"?>
<!-- Generator: Adobe Illustrator 27.0.1, SVG Export Plug-In . SVG Version: 6.00 Build 0)  -->
<svg version="1.1" id="Capa_2_00000137830717292455437830000013332635015443562395_"
	 xmlns="http://www.w3.org/2000/svg" xmlns:xlink="http://www.w3.org/1999/xlink" x="0px" y="0px" viewBox="0 0 72 72"
	 style="enable-background:new 0 0 72 72;" xml:space="preserve">
<g id="Fundamentales">
	<g>
		<polygon points="46.5,62.6 13.8,29.8 29.8,13.8 62.6,46.5 		"/>
		<path d="M2.6,18.7c-3.5-3.5-3.5-9.2,0-12.7l3.3-3.3h0c3.5-3.5,9.2-3.5,12.7,0l7.9,7.9l-16,16C10.6,26.6,2.6,18.7,2.6,18.7z"/>
		<path d="M65.8,49.7c0.9,0.9,1.6,2.1,1.9,3.3l4.2,14.6c0.3,1.2,0,2.4-0.9,3.3c-0.9,0.9-2.1,1.2-3.3,0.9l-14.6-4.2
			c-1.2-0.4-2.4-1-3.3-1.9L65.8,49.7L65.8,49.7z"/>
		<path d="M57.4,35L36.9,14.5l6.3-6.4c0,0,0.1,0.1,0.1,0.1l9,9c0.9,0.9,2.3,0.9,3.2,0s0.9-2.3,0-3.2l-9-9c0,0-0.1-0.1-0.1-0.1
			l2.8-2.8c2.7-2.6,6.9-2.6,9.6,0l11,11c2.6,2.6,2.6,6.9,0,9.6L57.4,35L57.4,35z"/>
		<path d="M5,46.4c0,0,0.1,0.1,0.1,0.1l9,9c0.9,0.9,2.3,0.9,3.2,0s0.9-2.3,0-3.2l-9-9c0,0-0.1-0.1-0.1-0.1l6.3-6.3L35,57.4
			L22.7,69.7c-2.6,2.6-6.9,2.6-9.6,0l-11-11c-2.6-2.7-2.6-6.9,0-9.6C2.2,49.2,5,46.4,5,46.4z"/>
	</g>
</g>
</svg>
