<?xml version="1.0" encoding="utf-8"?>
<!-- Generator: Adobe Illustrator 27.0.1, SVG Export Plug-In . SVG Version: 6.00 Build 0)  -->
<svg version="1.1" id="Capa_2_00000013164467568182251610000018012412321749503872_"
	 xmlns="http://www.w3.org/2000/svg" xmlns:xlink="http://www.w3.org/1999/xlink" x="0px" y="0px" viewBox="0 0 72 72"
	 style="enable-background:new 0 0 72 72;" xml:space="preserve">
<g id="Fundamentales">
	<path d="M56.3,5.7H15.7C7.1,5.7,0,12.8,0,21.4v19.1c0,8.6,7.1,15.7,15.7,15.7h11l5.5,8.1c1.5,2.5,5.1,2.5,6.5,0l5.5-8.1h12
		c8.6,0,15.7-7.1,15.7-15.7V21.4C72,12.8,64.9,5.7,56.3,5.7z M53.8,27.5c0,2.9-1.2,5.6-3.3,7.6L37.9,46.8c-0.5,0.5-1.2,0.8-1.9,0.8
		s-1.4-0.3-1.9-0.8L21.5,35.1c-2.1-2-3.3-4.7-3.3-7.6v-0.4c0-4.9,3.5-9,8.3-9.8c3.2-0.5,6.4,0.5,8.7,2.8l0.8,0.8l0.8-0.8
		c2.3-2.3,5.5-3.3,8.7-2.8c4.8,0.8,8.3,4.9,8.3,9.8L53.8,27.5L53.8,27.5z"/>
</g>
</svg>
