<?xml version="1.0" encoding="UTF-8"?><svg id="Capa_2" xmlns="http://www.w3.org/2000/svg" viewBox="0 0 54 72"><defs><style>.cls-1{fill:#fff;}</style></defs><g id="Fundamentales"><g><path class="cls-1" d="M14.52,43.19h-1.85v3.44h1.85c.68,0,1.2-.15,1.54-.45,.35-.3,.52-.72,.52-1.27s-.17-.97-.52-1.28c-.35-.3-.86-.45-1.54-.45Z"/><path class="cls-1" d="M52.75,16.75L37.25,1.25c-.46-.46-1.25-.13-1.25,.52V18h16.24c.65,0,.98-.79,.52-1.25Z"/><path class="cls-1" d="M26.98,43.22h-2.1v6.45h2.1c1.01,0,1.82-.29,2.43-.86,.61-.57,.92-1.36,.92-2.37s-.31-1.8-.92-2.37c-.61-.57-1.42-.86-2.43-.86Z"/><path class="cls-1" d="M31.5,22.5V0H3.04C1.36,0,0,1.36,0,3.04V68.96c0,1.68,1.36,3.04,3.04,3.04H50.96c1.68,0,3.04-1.36,3.04-3.04V22.5H31.5Zm-12.19,24.72c-.43,.65-1.03,1.15-1.81,1.5-.78,.35-1.71,.53-2.77,.53h-2.05v3.07h-3.33v-11.75h5.37c1.06,0,1.99,.18,2.77,.53,.78,.35,1.39,.86,1.81,1.51,.43,.65,.64,1.42,.64,2.31s-.21,1.65-.64,2.3Zm13.55,2.33c-.55,.88-1.32,1.57-2.32,2.05-1,.48-2.14,.72-3.43,.72h-5.56v-11.75h5.56c1.29,0,2.43,.24,3.43,.72,1,.48,1.77,1.16,2.32,2.05s.82,1.92,.82,3.11-.27,2.22-.82,3.11Zm11.79-6.42h-5.89v2.59h5.19v2.57h-5.19v4.03h-3.33v-11.75h9.22v2.57Z"/></g></g></svg>