<?xml version="1.0" encoding="UTF-8"?><svg id="Capa_2" xmlns="http://www.w3.org/2000/svg" viewBox="0 0 71.98 72"><g id="Fundamentales"><path d="M51.91,2.33l-11.92,11.93,17.74,17.74,11.92-11.92c3.1-3.1,3.1-8.12,0-11.22l-6.52-6.53c-3.1-3.1-8.12-3.1-11.22,0h0Zm-15.63,15.05l-17.49,2.29c-2.82,.85-5.06,3-5.99,5.81L.24,62.91c-.54,1.6-.14,3.39,1.03,4.59l25.78-25.77c-.43-.89-.67-1.88-.67-2.93,0-3.76,3.05-6.8,6.8-6.8s6.8,3.05,6.8,6.8-3.05,6.8-6.8,6.8c-1.05,0-2.04-.24-2.93-.67L4.47,70.72c1.22,1.18,2.99,1.59,4.59,1.03l37.46-12.56c2.79-.94,4.96-3.17,5.81-5.99l2.29-17.49-18.34-18.34Z"/></g></svg>