<?xml version="1.0" encoding="utf-8"?>
<!-- Generator: Adobe Illustrator 27.0.1, SVG Export Plug-In . SVG Version: 6.00 Build 0)  -->
<svg version="1.1" id="Capa_2_00000156562268885104572840000008106598573431300237_"
	 xmlns="http://www.w3.org/2000/svg" xmlns:xlink="http://www.w3.org/1999/xlink" x="0px" y="0px" viewBox="0 0 72 72"
	 style="enable-background:new 0 0 72 72;" xml:space="preserve">
<g id="Fundamentales">
	<g>
		<path d="M0.2,40.7c0-3.3,3.6-5.9,8-5.9h34c4.4,0,8,2.7,8,5.9v23.6c0,3.3-3.6,5.9-8,5.9h-34c-4.4,0-8-2.6-8-5.9
			C0.2,64.3,0.2,40.7,0.2,40.7z M70.2,38.1c1.2,0.5,2,1.5,2,2.6v23.6c0,1.1-0.8,2.1-2,2.6c-1.2,0.5-2.8,0.5-3.9-0.1l-9.6-5.9
			L54.9,60V45l1.7-0.9l9.6-5.9C67.4,37.6,68.9,37.6,70.2,38.1L70.2,38.1L70.2,38.1z"/>
		<circle cx="38.4" cy="16" r="14.2"/>
		<circle cx="9.4" cy="20" r="9.6"/>
	</g>
</g>
</svg>
