<?xml version="1.0" encoding="UTF-8"?><svg id="Capa_2" xmlns="http://www.w3.org/2000/svg" viewBox="0 0 71.7 43.02"><defs><style>.cls-1{fill:#fff;}</style></defs><g id="Fundamentales"><path class="cls-1" d="M64.53,0H7.17C3.22,0,0,3.22,0,7.17v28.68c0,3.95,3.22,7.17,7.17,7.17h13.49c2.71,0,5.2-1.53,6.41-3.97l3.59-7.17c.99-1.96,2.99-3.2,5.19-3.2s4.2,1.24,5.19,3.2l3.59,7.17c1.21,2.43,3.7,3.97,6.41,3.97h13.51c3.95,0,7.17-3.22,7.17-7.17V7.17c0-3.95-3.22-7.17-7.17-7.17ZM25.1,19.72c0,3.95-3.22,7.17-7.17,7.17s-7.17-3.22-7.17-7.17,3.22-7.17,7.17-7.17,7.17,3.22,7.17,7.17Zm28.68,7.17c-3.95,0-7.17-3.22-7.17-7.17s3.22-7.17,7.17-7.17,7.17,3.22,7.17,7.17-3.22,7.17-7.17,7.17Z"/></g></svg>