<?xml version="1.0" encoding="UTF-8"?><svg id="Capa_2" xmlns="http://www.w3.org/2000/svg" viewBox="0 0 72 71.45"><defs><style>.cls-1{fill:#fff;}</style></defs><g id="Fundamentales"><path class="cls-1" d="M32.98,.53c1.95-.7,4.09-.7,6.06,0l27,9.65c3.57,1.28,5.96,4.67,5.96,8.48V52.8c0,3.8-2.39,7.2-5.98,8.48l-27,9.65c-1.95,.7-4.09,.7-6.06,0L5.96,61.28c-3.57-1.28-5.96-4.67-5.96-8.48V18.65c0-3.8,2.39-7.2,5.98-8.48L32.98,.53Zm2.69,7.85L8.81,17.96l26.85,9.58,26.85-9.58-26.85-9.58Zm3.98,54.09l24.73-9.79V24.58l-24.73,8.83v29.06Zm-6.79-29.06L8.13,24.58v29.06s24.73,8.83,24.73,8.83v-29.06Z"/></g></svg>