<?xml version="1.0" encoding="UTF-8"?><svg id="Capa_2" xmlns="http://www.w3.org/2000/svg" viewBox="0 0 71.98 71.98"><defs><style>.cls-1{fill:#fff;}</style></defs><g id="Fundamentales"><path class="cls-1" d="M35.99,0C16.11,0,0,16.11,0,35.99s16.11,35.99,35.99,35.99,35.99-16.11,35.99-35.99S55.87,0,35.99,0Zm-9.8,18.7l11.72,20.3H14.46l11.72-20.3Zm-6.96,38.12c-1.97,0-3.77-1.11-4.66-2.87l-4.36-7.54h31.99l6.01,10.42H19.22Zm41.51-7.2l-4.13,7.16L30.48,11.34h8.97c1.93,0,3.7,1.07,4.61,2.77l16.87,29.51c1.93,2.98-.01,5.67-.2,6Z"/></g></svg>