<?xml version="1.0" encoding="UTF-8"?><svg id="Capa_2" xmlns="http://www.w3.org/2000/svg" viewBox="0 0 71.98 71.98"><defs><style>.cls-1{fill:#fff;}</style></defs><g id="Fundamentales"><g><path class="cls-1" d="M53.5,22.76c-.79-1.97-2.3-3.49-4.27-4.27-2.95-1.16-9.97-.9-13.23-.9s-10.28-.27-13.23,.9c-1.97,.79-3.49,2.3-4.27,4.27-1.16,2.95-.9,9.97-.9,13.23s-.27,10.28,.9,13.23c.79,1.97,2.3,3.49,4.27,4.27,2.95,1.16,9.97,.9,13.23,.9s10.28,.27,13.23-.9c1.97-.79,3.49-2.3,4.27-4.27,1.17-2.95,.9-9.97,.9-13.23s.27-10.28-.9-13.23Zm-17.5,24.74c-6.37,0-11.51-5.14-11.51-11.51s5.14-11.51,11.51-11.51,11.51,5.14,11.51,11.51-5.14,11.51-11.51,11.51Zm11.98-20.81c-1.49,0-2.68-1.2-2.68-2.68s1.2-2.68,2.68-2.68,2.68,1.2,2.68,2.68-1.2,2.68-2.68,2.68Z"/><path class="cls-1" d="M35.99,0C16.11,0,0,16.11,0,35.99s16.11,35.99,35.99,35.99,35.99-16.11,35.99-35.99S55.87,0,35.99,0Zm22.29,45.25c-.18,3.6-1,6.78-3.63,9.41-2.62,2.63-5.81,3.46-9.41,3.63-3.71,.21-14.82,.21-18.52,0-3.6-.18-6.77-1-9.41-3.63-2.63-2.62-3.46-5.81-3.63-9.41-.21-3.71-.21-14.82,0-18.52,.18-3.6,.99-6.78,3.63-9.41,2.63-2.62,5.82-3.45,9.41-3.62,3.71-.21,14.82-.21,18.52,0,3.6,.18,6.78,1,9.41,3.63,2.63,2.62,3.46,5.81,3.63,9.41,.21,3.71,.21,14.81,0,18.51Z"/><circle class="cls-1" cx="36" cy="35.99" r="7.48" transform="translate(-14.91 36) rotate(-45)"/></g></g></svg>