<?xml version="1.0" encoding="UTF-8"?><svg id="Capa_2" xmlns="http://www.w3.org/2000/svg" viewBox="0 0 72 60.55"><defs><style>.cls-1{fill:#fff;}</style></defs><g id="Fundamentales"><path class="cls-1" d="M56.29,0H15.71C7.07,0,0,7.07,0,15.71v19.12c0,8.64,7.07,15.71,15.71,15.71h11.01l5.52,8.12c1.45,2.51,5.07,2.51,6.52,0l5.52-8.12h12.01c8.64,0,15.71-7.07,15.71-15.71V15.71c0-8.64-7.07-15.71-15.71-15.71Zm-2.49,21.73c0,2.88-1.2,5.64-3.31,7.61l-12.56,11.72c-.52,.49-1.21,.76-1.93,.76s-1.4-.27-1.93-.76l-12.56-11.72c-2.11-1.97-3.31-4.73-3.31-7.61v-.4c0-4.86,3.51-9,8.3-9.8,3.17-.53,6.39,.51,8.66,2.77l.83,.83,.83-.83c2.27-2.27,5.49-3.3,8.66-2.77,4.79,.8,8.3,4.94,8.3,9.8v.4Z"/></g></svg>