<?xml version="1.0" encoding="UTF-8"?><svg id="Capa_2" xmlns="http://www.w3.org/2000/svg" viewBox="0 0 72 72"><defs><style>.cls-1{fill:#fff;}</style></defs><g id="Fundamentales"><path class="cls-1" d="M23.19,3.46C22.11,.85,19.25-.55,16.52,.2L4.15,3.57C1.7,4.25,0,6.47,0,9c0,34.79,28.21,63,63,63,2.53,0,4.75-1.7,5.43-4.15l3.37-12.37c.75-2.73-.65-5.58-3.26-6.67l-13.5-5.62c-2.29-.96-4.95-.3-6.51,1.63l-8.91,10.21c-9.9-4.68-17.91-12.7-22.6-22.6l10.16-8.95c1.93-1.57,2.59-4.22,1.63-6.51L23.19,3.48h0Z"/></g></svg>