<?xml version="1.0" encoding="UTF-8"?><svg id="Capa_2" xmlns="http://www.w3.org/2000/svg" viewBox="0 0 72 72"><defs><style>.cls-1{fill:#fff;}</style></defs><g id="Fundamentales"><path class="cls-1" d="M36,0C16.12,0,0,16.12,0,36s16.12,36,36,36,36-16.12,36-36S55.88,0,36,0Zm21.55,30.12c.03,.39,.03,.79,.03,1.18,0,12.04-9.16,25.91-25.91,25.91-5.16,0-9.95-1.49-13.98-4.09,.73,.08,1.44,.11,2.2,.11,4.26,0,8.18-1.44,11.31-3.89-4-.08-7.36-2.71-8.51-6.32,.56,.08,1.13,.14,1.72,.14,.82,0,1.64-.11,2.4-.31-4.17-.85-7.3-4.51-7.3-8.94v-.11c1.21,.68,2.62,1.1,4.12,1.16-2.45-1.64-4.06-4.43-4.06-7.58,0-1.69,.45-3.24,1.24-4.6,4.48,5.53,11.22,9.13,18.78,9.53-.14-.68-.23-1.38-.23-2.09,0-5.02,4.06-9.11,9.11-9.11,2.62,0,4.99,1.1,6.65,2.88,2.06-.39,4.03-1.16,5.78-2.2-.68,2.11-2.11,3.89-4,5.02,1.83-.2,3.61-.7,5.24-1.41-1.24,1.8-2.79,3.41-4.57,4.71Z"/></g></svg>