<?xml version="1.0" encoding="UTF-8"?><svg id="Capa_2" xmlns="http://www.w3.org/2000/svg" viewBox="0 0 72.38 68.51"><defs><style>.cls-1{fill:#fff;}</style></defs><g id="Fundamentales"><g><path class="cls-1" d="M.38,38.96c0-3.26,3.59-5.91,8-5.91H42.38c4.41,0,8,2.65,8,5.91v23.64c0,3.26-3.59,5.91-8,5.91H8.38c-4.41,0-8-2.65-8-5.91v-23.64Zm69.98-2.6c1.25,.52,2.02,1.51,2.02,2.6v23.64c0,1.09-.78,2.09-2.02,2.6s-2.75,.46-3.94-.15l-9.58-5.91-1.7-.88v-14.98l1.7-.88,9.58-5.91c1.17-.6,2.68-.66,3.94-.15h0Z"/><circle class="cls-1" cx="38.63" cy="14.25" r="14.25"/><circle class="cls-1" cx="9.56" cy="18.29" r="9.56"/></g></g></svg>