<?xml version="1.0" encoding="utf-8"?>
<!-- Generator: Adobe Illustrator 27.0.1, SVG Export Plug-In . SVG Version: 6.00 Build 0)  -->
<svg version="1.1" id="Capa_2_00000098202997712932469790000009387625841669341074_"
	 xmlns="http://www.w3.org/2000/svg" xmlns:xlink="http://www.w3.org/1999/xlink" x="0px" y="0px" viewBox="0 0 71.7 72.7"
	 style="enable-background:new 0 0 71.7 72.7;" xml:space="preserve">
<g id="Fundamentales">
	<path d="M64.5,14.8H7.2c-4,0-7.2,3.2-7.2,7.2v28.7c0,4,3.2,7.2,7.2,7.2h13.5c2.7,0,5.2-1.5,6.4-4l3.6-7.2c1-2,3-3.2,5.2-3.2
		s4.2,1.2,5.2,3.2l3.6,7.2c1.2,2.4,3.7,4,6.4,4h13.5c3.9,0,7.2-3.2,7.2-7.2V22C71.7,18.1,68.5,14.8,64.5,14.8L64.5,14.8z M25.1,34.6
		c0,4-3.2,7.2-7.2,7.2s-7.2-3.2-7.2-7.2s3.2-7.2,7.2-7.2S25.1,30.6,25.1,34.6z M53.8,41.7c-4,0-7.2-3.2-7.2-7.2s3.2-7.2,7.2-7.2
		s7.2,3.2,7.2,7.2S57.7,41.7,53.8,41.7z"/>
</g>
</svg>
